<?xml version="1.0" standalone="no"?>
<!DOCTYPE svg PUBLIC "-//W3C//DTD SVG 20010904//EN"
 "http://www.w3.org/TR/2001/REC-SVG-20010904/DTD/svg10.dtd">
<svg version="1.0" xmlns="http://www.w3.org/2000/svg"
 width="512.000000pt" height="512.000000pt" viewBox="0 0 512.000000 512.000000"
 preserveAspectRatio="xMidYMid meet">
<metadata>
Created by potrace 1.14, written by Peter Selinger 2001-2017
</metadata>
<g transform="translate(0.000000,512.000000) scale(0.100000,-0.100000)"
fill="#000000" stroke="none">
<path d="M448 4805 c-66 -18 -127 -56 -177 -110 -42 -46 -93 -141 -107 -200
-12 -48 -17 -657 -6 -664 6 -3 1089 -6 2409 -6 l2398 0 3 290 c3 308 0 338
-46 430 -36 72 -134 166 -218 208 -118 59 -155 65 -439 66 -239 2 -255 1 -256
-16 -1 -10 -2 -121 -3 -248 -2 -266 -5 -278 -83 -319 -67 -34 -160 -8 -198 56
-18 30 -19 53 -20 278 l0 245 -1203 3 c-661 1 -1203 -1 -1203 -5 -1 -5 -2
-117 -3 -249 -2 -239 -2 -242 -26 -278 -61 -89 -196 -88 -252 3 -22 34 -23 46
-25 266 0 127 -2 238 -2 248 -1 16 -18 17 -248 16 -164 -1 -264 -6 -295 -14z"/>
<path d="M153 2078 c1 -788 5 -1442 9 -1453 48 -147 94 -213 189 -268 103 -61
-26 -57 2195 -55 l2029 3 62 23 c173 65 311 209 341 357 4 22 8 665 7 1430 l0
1390 -2418 3 -2417 2 3 -1432z m1406 859 c13 -6 34 -25 45 -40 20 -27 21 -41
21 -245 0 -199 -2 -220 -20 -251 -38 -64 -57 -68 -304 -67 l-221 1 -32 33 -33
32 -3 225 c-3 247 3 281 57 310 35 19 453 21 490 2z m1190 0 c13 -6 34 -25 45
-40 20 -27 21 -41 21 -248 1 -329 15 -314 -306 -314 -321 0 -311 -10 -311 310
1 316 -11 304 307 304 155 1 227 -3 244 -12z m1211 -2 c55 -29 60 -52 60 -294
0 -245 -4 -263 -59 -290 -31 -15 -65 -18 -256 -17 -311 1 -299 -11 -301 296
-2 234 3 260 51 298 27 21 37 22 252 22 181 0 230 -3 253 -15z m-2383 -1363
c17 -12 35 -34 40 -49 6 -16 9 -122 9 -238 -1 -311 6 -303 -309 -305 -319 -1
-307 -13 -307 307 0 237 3 253 56 288 28 19 44 20 255 20 216 -1 226 -2 256
-23z m1184 5 c51 -34 54 -52 54 -292 0 -320 15 -305 -305 -305 -322 0 -311
-11 -311 303 0 217 4 249 39 280 32 29 63 33 285 32 183 -1 216 -3 238 -18z
m1206 -3 c51 -38 53 -50 51 -301 l-3 -233 -28 -27 -27 -28 -240 -3 -239 -3
-38 35 -38 34 -1 227 c-1 333 -12 322 315 320 206 -1 222 -2 248 -21z"/>
</g>
</svg>
